<svg height="512" viewBox="0 0 64 64" width="512" xmlns="http://www.w3.org/2000/svg"><g id="download_android_app_aplication_phone" data-name="download android app aplication phone"><path d="m60.105 16.629a14.537 14.537 0 0 0 -12.741-12.74 132.247 132.247 0 0 0 -30.728 0 14.537 14.537 0 0 0 -12.736 12.74 132.357 132.357 0 0 0 0 30.728 14.537 14.537 0 0 0 12.736 12.743 132.247 132.247 0 0 0 30.728 0 14.537 14.537 0 0 0 12.741-12.743 132.357 132.357 0 0 0 0-30.728zm-28.105 25.721-10.357-12.428h6.357v-18.929h8v18.929h6.357z" fill="#4370ff"/><path d="m38 8.993h-4v22.929h4.087l-6.087 7.305-6.087-7.305h4.087v-22.929h-4v18.929h-8.627l14.627 17.553 14.627-17.553h-8.627z"/><path d="m62.1 16.392a16.463 16.463 0 0 0 -14.5-14.5c-3.188-.372-6.39-.615-9.6-.758v4.005c3.052.14 6.1.373 9.134.727a12.478 12.478 0 0 1 10.988 10.989 131.014 131.014 0 0 1 0 30.276 12.478 12.478 0 0 1 -10.987 10.989 130.851 130.851 0 0 1 -30.27 0 12.478 12.478 0 0 1 -10.987-10.989 131.014 131.014 0 0 1 0-30.276 12.478 12.478 0 0 1 10.987-10.989 127.579 127.579 0 0 1 17.135-.849v-4a134.71 134.71 0 0 0 -17.6.877 16.463 16.463 0 0 0 -14.5 14.5 134.886 134.886 0 0 0 0 31.2 16.463 16.463 0 0 0 14.5 14.5 134.722 134.722 0 0 0 31.2 0 16.463 16.463 0 0 0 14.5-14.5 134.886 134.886 0 0 0 0-31.202z"/><path d="m50.571 52.636h-37.142v-10h4v6h29.142v-6h4z"/></g></svg>