<?xml version="1.0"?>
<svg xmlns="http://www.w3.org/2000/svg" xmlns:xlink="http://www.w3.org/1999/xlink" xmlns:svgjs="http://svgjs.com/svgjs" version="1.1" width="512" height="512" x="0" y="0" viewBox="0 0 479.944 479.944" style="enable-background:new 0 0 512 512" xml:space="preserve" class=""><g transform="matrix(6.123234045744245e-17,0.9999999918331586,-1.0000000081668416,6.123233945729283e-17,479.9442577886727,0.00025754453014315004)">
<g xmlns="http://www.w3.org/2000/svg">
	<g>
		<path d="M256.228,6.344c-9.187-8.458-23.325-8.458-32.512,0l-87.744,81.432v392.168h208V87.776L256.228,6.344z M327.972,463.944    h-176V94.76l82.632-76.696c3.016-2.839,7.72-2.839,10.736,0l82.632,76.696V463.944z" fill="#000000" data-original="#000000" style="" class=""/>
	</g>
</g>
<g xmlns="http://www.w3.org/2000/svg">
	<g>
		<polygon points="247.972,431.944 247.972,383.944 231.972,383.944 231.972,431.944 199.972,431.944 199.972,383.944     183.972,383.944 183.972,447.944 295.972,447.944 295.972,431.944   " fill="#000000" data-original="#000000" style="" class=""/>
	</g>
</g>
<g xmlns="http://www.w3.org/2000/svg">
	<g>
		<polygon points="279.972,191.944 279.972,239.944 247.972,239.944 247.972,191.944 231.972,191.944 231.972,239.944     199.972,239.944 199.972,191.944 183.972,191.944 183.972,255.944 295.972,255.944 295.972,191.944   " fill="#000000" data-original="#000000" style="" class=""/>
	</g>
</g>
<g xmlns="http://www.w3.org/2000/svg">
	<g>
		<polygon points="279.972,95.944 279.972,143.944 247.972,143.944 247.972,95.944 231.972,95.944 231.972,143.944 199.972,143.944     199.972,95.944 183.972,95.944 183.972,159.944 295.972,159.944 295.972,95.944   " fill="#000000" data-original="#000000" style="" class=""/>
	</g>
</g>
<g xmlns="http://www.w3.org/2000/svg">
	<g>
		<path d="M267.284,303.944h28.688v-16H260.66l-12.688,12.688v-12.688h-64v64h112v-16h-48v-12.688L267.284,303.944z     M231.972,335.944h-32v-32h32V335.944z" fill="#000000" data-original="#000000" style="" class=""/>
	</g>
</g>
<g xmlns="http://www.w3.org/2000/svg">
	<g>
		<circle cx="239.972" cy="55.944" r="16" fill="#000000" data-original="#000000" style="" class=""/>
	</g>
</g>
<g xmlns="http://www.w3.org/2000/svg">
	<g>
		<polygon points="333.356,37.656 322.588,49.496 359.972,83.48 359.972,135.944 375.972,135.944 375.972,76.408   " fill="#000000" data-original="#000000" style="" class=""/>
	</g>
</g>
<g xmlns="http://www.w3.org/2000/svg">
	<g>
		<rect x="103.972" y="383.944" width="16" height="96" fill="#000000" data-original="#000000" style="" class=""/>
	</g>
</g>
<g xmlns="http://www.w3.org/2000/svg">
</g>
<g xmlns="http://www.w3.org/2000/svg">
</g>
<g xmlns="http://www.w3.org/2000/svg">
</g>
<g xmlns="http://www.w3.org/2000/svg">
</g>
<g xmlns="http://www.w3.org/2000/svg">
</g>
<g xmlns="http://www.w3.org/2000/svg">
</g>
<g xmlns="http://www.w3.org/2000/svg">
</g>
<g xmlns="http://www.w3.org/2000/svg">
</g>
<g xmlns="http://www.w3.org/2000/svg">
</g>
<g xmlns="http://www.w3.org/2000/svg">
</g>
<g xmlns="http://www.w3.org/2000/svg">
</g>
<g xmlns="http://www.w3.org/2000/svg">
</g>
<g xmlns="http://www.w3.org/2000/svg">
</g>
<g xmlns="http://www.w3.org/2000/svg">
</g>
<g xmlns="http://www.w3.org/2000/svg">
</g>
</g></svg>
