<svg id="Capa_1" enable-background="new 0 0 512.12 512.12" height="512" viewBox="0 0 512.12 512.12" width="512" xmlns="http://www.w3.org/2000/svg" xmlns:xlink="http://www.w3.org/1999/xlink"><linearGradient id="SVGID_1_" gradientUnits="userSpaceOnUse" x1="62.347" x2="491.268" y1="480.58" y2="51.659"><stop offset="0" stop-color="#fd5900"/><stop offset="1" stop-color="#ffde00"/></linearGradient><linearGradient id="SVGID_2_" gradientUnits="userSpaceOnUse" x1="103.121" x2="383.552" y1="394.06" y2="113.629"><stop offset="0" stop-color="#ffe59a"/><stop offset="1" stop-color="#ffffd5"/></linearGradient><g><g><g><path d="m46.12 211.06c24.814 0 45-20.186 45-45 0-11.039-4.017-51.107-10.657-58.898l-19.343 16.661c-4.715-1.681-9.716-2.763-15-2.763-24.814 0-46 20.186-46 45s21.186 45 46 45zm317.223 61.659c-5.918-4.263-14.15-3.618-19.365 1.567-15.498 15.483-48.223 15.454-63.662 0l-42.422-42.422c-15.469-15.469-15.469-48.164 0-63.633 5.215-5.2 5.859-13.403 1.553-19.38-4.336-6.006-12.363-7.954-18.867-4.644l-84.844 42.422c-4.307 2.153-7.324 6.255-8.086 11.016-.791 4.761.791 9.595 4.189 13.008 5.859 5.845 5.859 15.366 0 21.211-6.68 6.68-17.373 11.104-30.908 16.714-21.475 8.892-48.193 19.951-75.146 46.919-44.956 44.956-26.801 121.72 21.181 169.703 47.131 47.131 124.804 66.162 169.717 21.211 26.953-26.953 38.027-53.687 46.934-75.146 5.596-13.535 10.02-24.229 16.699-30.908 5.625-5.625 15.586-5.625 21.211 0 3.398 3.384 8.291 5.054 13.008 4.204 4.746-.776 8.848-3.779 11.016-8.101l42.451-84.858c3.281-6.578 1.318-14.576-4.659-18.883zm144.383-204.602-63.633-63.633c-6.456-6.487-17.344-5.739-22.822 1.89l-7.379 10.329-1.615-1.613c-5.859-5.859-15.352-5.859-21.211 0s-5.859 15.366 0 21.211l5.153 5.147-17.679 24.749-8.685-8.685c-5.86-5.859-15.352-5.859-21.211 0s-5.859 15.352 0 21.211c3.719 3.717 7.079 7.079 10.605 10.605l15.973 45.973 2.684 2.685 44.976 14.976c3.536 3.536 6.852 6.852 10.605 10.605 5.859 5.859 15.352 5.859 21.211 0s5.859-15.352 0-21.211l-8.688-8.688 24.743-17.673 5.156 5.151c5.859 5.859 15.352 5.859 21.211 0s5.859-15.366 0-21.211l-1.619-1.617 10.349-7.392c7.455-5.348 8.477-16.177 1.876-22.809zm-85.606 356.706c-4.715-1.681-9.716-2.763-15-2.763-24.814 0-46 20.186-46 45s21.186 45 46 45 45-20.186 45-45c0-11.039-4.017-51.107-10.657-58.898z" fill="url(#SVGID_1_)"/></g></g><g><g><path d="m91.12 32.823c17.422 6.213 30 22.707 30 42.237v31c0 8.291 6.709 15 15 15s15-6.709 15-15v-31c0-41.353-33.633-75-75-75-8.291 0-15 6.709-15 15v108.763c17.422 6.213 30 22.707 30 42.237zm19.508 326.322c-5.859-5.859-15.352-5.859-21.211 0s-5.859 15.352 0 21.211l42.422 42.422c5.86 5.859 15.352 5.859 21.211 0s5.859-15.352 0-21.211zm326.492-58.085c-8.291 0-15 6.709-15 15v108.763c17.422 6.213 30 22.707 30 42.237v-133.237c17.422 6.213 30 22.707 30 42.237v30c0 8.291 6.709 15 15 15s15-6.709 15-15v-30c0-41.352-33.632-75-75-75zm-77.871-211.732-227.41 227.381c-5.856 5.856-5.859 15.352 0 21.211l42.422 42.422c5.859 5.859 15.352 5.859 21.211 0l227.41-227.381c-22.615-22.618-41.876-41.877-63.633-63.633z" fill="url(#SVGID_2_)"/></g></g></g></svg>